<svg width="500" height="528" viewBox="0 0 500 528" fill="none" xmlns="http://www.w3.org/2000/svg">
<path d="M283.362 8.70046C361.777 24.5961 432.884 67.9417 470.994 138.019C508.936 207.785 508.407 291.404 476.689 364.186C445.459 435.85 383.319 487.658 308.457 510.991C230.68 535.233 141.711 538.25 77.1496 488.717C14.5026 440.652 7.86472 355.241 2.99495 276.633C-1.96636 196.547 -7.99411 108.261 50.1388 52.7066C110.204 -4.69476 201.788 -7.83538 283.362 8.70046Z" fill="#818CF8"/>
<g clip-path="url(#clip0_6_537)">
<path d="M285.232 164.944C293.122 164.944 299.518 158.552 299.518 150.667C299.518 142.781 293.122 136.389 285.232 136.389C277.342 136.389 270.945 142.781 270.945 150.667C270.945 158.552 277.342 164.944 285.232 164.944Z" fill="#F2F2F2"/>
<path d="M396.058 376.839C417.293 360.675 427.436 333.513 421.086 307.602C420.928 306.958 420.762 306.316 420.587 305.675C416.377 290.294 405.962 275.676 390.784 270.762C378.038 266.635 364.127 269.809 350.831 268.168C324.729 264.946 304.494 243.841 290.255 221.743C276.017 199.646 265.074 174.91 246.154 156.654C214.968 126.563 164.096 120.084 125.429 139.671C86.7629 159.259 62.1329 202.716 63.1833 246.026C64.2337 289.335 89.9613 330.743 127.324 352.712C141.05 360.783 156.925 366.5 172.724 364.499C186.432 362.763 198.888 355.402 212.532 353.217C233.983 349.781 255.298 359.474 273.852 370.769C292.405 382.063 310.327 395.451 331.411 400.688C351.883 405.772 377.247 391.158 396.058 376.839Z" fill="#F2F2F2"/>
<path d="M365.548 140.581C365.082 140.271 364.611 139.977 364.146 139.677C350.689 131.077 336.266 124.09 321.175 118.86L317.675 167.103H295.491V111.818C294.095 111.529 292.688 111.257 291.281 111V167.103H264.918C250.405 167.103 236.486 161.342 226.224 151.086C215.962 140.83 210.197 126.921 210.197 112.417C208.784 112.722 207.382 113.048 205.98 113.396V167.103H184.508L181.175 121.101C165.666 127.045 150.942 134.862 137.332 144.377C137.096 144.538 136.861 144.704 136.631 144.864C135.448 145.693 134.282 146.538 133.121 147.393V331.44H196.403L195.284 315.96L189.131 230.965H313.047L306.894 315.96L305.775 331.44H368.357V142.442C367.426 141.811 366.489 141.191 365.548 140.581ZM205.98 216.929H188.115L184.813 171.317H205.98V216.929ZM291.281 216.929H261.274V216.025C261.274 215.591 261.188 215.161 261.022 214.759C260.855 214.358 260.611 213.993 260.304 213.687C259.996 213.38 259.631 213.136 259.229 212.971C258.827 212.805 258.397 212.72 257.962 212.721H244.917C244.483 212.72 244.053 212.806 243.652 212.972C243.25 213.138 242.886 213.381 242.579 213.688C242.271 213.995 242.028 214.359 241.862 214.76C241.696 215.161 241.61 215.591 241.61 216.025V216.929H210.197V171.317H291.281V216.929ZM295.492 216.929V171.317H317.37L314.069 216.929H295.492Z" fill="#3F3D56"/>
<path d="M40 343.226C44.6482 348.73 49.6758 353.903 55.046 358.706L445.954 359.241C451.324 354.437 456.352 349.265 461 343.76L40 343.226Z" fill="#3F3D56"/>
<path d="M305.087 293.657V339.485C305.088 340.069 305.32 340.629 305.733 341.042C306.147 341.455 306.707 341.687 307.291 341.688H375.247C375.831 341.687 376.392 341.455 376.805 341.042C377.218 340.629 377.451 340.069 377.451 339.485V293.657C377.45 293.074 377.217 292.514 376.804 292.102C376.391 291.69 375.831 291.458 375.247 291.457H307.291C306.707 291.458 306.148 291.69 305.735 292.102C305.321 292.514 305.089 293.074 305.087 293.657Z" fill="#3F3D56"/>
<path d="M306.682 294.227V338.92C306.682 339.232 306.806 339.531 307.027 339.752C307.248 339.972 307.547 340.096 307.859 340.097H374.681C374.994 340.096 375.293 339.972 375.514 339.752C375.734 339.531 375.859 339.232 375.859 338.92V294.227C375.859 293.915 375.735 293.615 375.514 293.394C375.293 293.173 374.994 293.048 374.681 293.048H307.859C307.547 293.048 307.247 293.173 307.026 293.394C306.806 293.615 306.682 293.915 306.682 294.227Z" fill="#6366F1"/>
<path d="M303.666 348.423C303.791 348.579 303.949 348.705 304.129 348.791C304.309 348.877 304.506 348.921 304.706 348.92H377.471C377.67 348.92 377.866 348.875 378.046 348.79C378.225 348.704 378.383 348.579 378.509 348.425C378.634 348.27 378.723 348.09 378.77 347.897C378.817 347.703 378.82 347.502 378.779 347.307L377.65 341.946C377.603 341.727 377.502 341.523 377.357 341.354C377.211 341.184 377.025 341.053 376.816 340.974C376.665 340.914 376.504 340.884 376.341 340.884H305.831C305.668 340.884 305.507 340.914 305.356 340.974C305.147 341.053 304.961 341.184 304.815 341.354C304.67 341.523 304.569 341.727 304.522 341.946L303.393 347.307C303.352 347.502 303.356 347.703 303.403 347.896C303.451 348.089 303.54 348.269 303.666 348.423Z" fill="#2F2E41"/>
<path d="M373.844 343.193H375.563C375.707 343.193 375.824 343.077 375.824 342.932V342.111C375.824 341.966 375.707 341.85 375.563 341.85H373.844C373.7 341.85 373.583 341.966 373.583 342.111V342.932C373.583 343.077 373.7 343.193 373.844 343.193Z" fill="#3F3D56"/>
<path d="M369.362 343.193H371.081C371.225 343.193 371.342 343.077 371.342 342.932V342.111C371.342 341.966 371.225 341.85 371.081 341.85H369.362C369.218 341.85 369.101 341.966 369.101 342.111V342.932C369.101 343.077 369.218 343.193 369.362 343.193Z" fill="#3F3D56"/>
<path d="M364.88 343.193H366.599C366.743 343.193 366.86 343.077 366.86 342.932V342.111C366.86 341.966 366.743 341.85 366.599 341.85H364.88C364.736 341.85 364.619 341.966 364.619 342.111V342.932C364.619 343.077 364.736 343.193 364.88 343.193Z" fill="#3F3D56"/>
<path d="M360.398 343.193H362.116C362.261 343.193 362.378 343.077 362.378 342.932V342.111C362.378 341.966 362.261 341.85 362.116 341.85H360.398C360.253 341.85 360.136 341.966 360.136 342.111V342.932C360.136 343.077 360.253 343.193 360.398 343.193Z" fill="#3F3D56"/>
<path d="M355.915 343.193H357.634C357.778 343.193 357.895 343.077 357.895 342.932V342.111C357.895 341.966 357.778 341.85 357.634 341.85H355.915C355.771 341.85 355.654 341.966 355.654 342.111V342.932C355.654 343.077 355.771 343.193 355.915 343.193Z" fill="#3F3D56"/>
<path d="M351.433 343.193H353.152C353.296 343.193 353.413 343.077 353.413 342.932V342.111C353.413 341.966 353.296 341.85 353.152 341.85H351.433C351.289 341.85 351.172 341.966 351.172 342.111V342.932C351.172 343.077 351.289 343.193 351.433 343.193Z" fill="#3F3D56"/>
<path d="M346.951 343.193H348.67C348.814 343.193 348.931 343.077 348.931 342.932V342.111C348.931 341.966 348.814 341.85 348.67 341.85H346.951C346.807 341.85 346.69 341.966 346.69 342.111V342.932C346.69 343.077 346.807 343.193 346.951 343.193Z" fill="#3F3D56"/>
<path d="M342.469 343.193H344.187C344.332 343.193 344.449 343.077 344.449 342.932V342.111C344.449 341.966 344.332 341.85 344.187 341.85H342.469C342.324 341.85 342.207 341.966 342.207 342.111V342.932C342.207 343.077 342.324 343.193 342.469 343.193Z" fill="#3F3D56"/>
<path d="M337.986 343.193H339.705C339.849 343.193 339.966 343.077 339.966 342.932V342.111C339.966 341.966 339.849 341.85 339.705 341.85H337.986C337.842 341.85 337.725 341.966 337.725 342.111V342.932C337.725 343.077 337.842 343.193 337.986 343.193Z" fill="#3F3D56"/>
<path d="M333.504 343.193H335.223C335.367 343.193 335.484 343.077 335.484 342.932V342.111C335.484 341.966 335.367 341.85 335.223 341.85H333.504C333.36 341.85 333.243 341.966 333.243 342.111V342.932C333.243 343.077 333.36 343.193 333.504 343.193Z" fill="#3F3D56"/>
<path d="M329.022 343.193H330.741C330.885 343.193 331.002 343.077 331.002 342.932V342.111C331.002 341.966 330.885 341.85 330.741 341.85H329.022C328.878 341.85 328.761 341.966 328.761 342.111V342.932C328.761 343.077 328.878 343.193 329.022 343.193Z" fill="#3F3D56"/>
<path d="M324.54 343.193H326.258C326.403 343.193 326.52 343.077 326.52 342.932V342.111C326.52 341.966 326.403 341.85 326.258 341.85H324.54C324.395 341.85 324.279 341.966 324.279 342.111V342.932C324.279 343.077 324.395 343.193 324.54 343.193Z" fill="#3F3D56"/>
<path d="M320.058 343.193H321.776C321.92 343.193 322.037 343.077 322.037 342.932V342.111C322.037 341.966 321.92 341.85 321.776 341.85H320.058C319.913 341.85 319.796 341.966 319.796 342.111V342.932C319.796 343.077 319.913 343.193 320.058 343.193Z" fill="#3F3D56"/>
<path d="M315.575 343.193H317.294C317.438 343.193 317.555 343.077 317.555 342.932V342.111C317.555 341.966 317.438 341.85 317.294 341.85H315.575C315.431 341.85 315.314 341.966 315.314 342.111V342.932C315.314 343.077 315.431 343.193 315.575 343.193Z" fill="#3F3D56"/>
<path d="M311.093 343.193H312.812C312.956 343.193 313.073 343.077 313.073 342.932V342.111C313.073 341.966 312.956 341.85 312.812 341.85H311.093C310.949 341.85 310.832 341.966 310.832 342.111V342.932C310.832 343.077 310.949 343.193 311.093 343.193Z" fill="#3F3D56"/>
<path d="M306.611 343.193H308.33C308.474 343.193 308.591 343.077 308.591 342.932V342.111C308.591 341.966 308.474 341.85 308.33 341.85H306.611C306.467 341.85 306.35 341.966 306.35 342.111V342.932C306.35 343.077 306.467 343.193 306.611 343.193Z" fill="#3F3D56"/>
<path d="M373.897 345.433H375.616C375.76 345.433 375.877 345.316 375.877 345.172V344.35C375.877 344.206 375.76 344.089 375.616 344.089H373.897C373.753 344.089 373.636 344.206 373.636 344.35V345.172C373.636 345.316 373.753 345.433 373.897 345.433Z" fill="#3F3D56"/>
<path d="M369.415 345.433H371.134C371.278 345.433 371.395 345.316 371.395 345.172V344.35C371.395 344.206 371.278 344.089 371.134 344.089H369.415C369.271 344.089 369.154 344.206 369.154 344.35V345.172C369.154 345.316 369.271 345.433 369.415 345.433Z" fill="#3F3D56"/>
<path d="M364.933 345.433H366.651C366.796 345.433 366.913 345.316 366.913 345.172V344.35C366.913 344.206 366.796 344.089 366.651 344.089H364.933C364.789 344.089 364.672 344.206 364.672 344.35V345.172C364.672 345.316 364.789 345.433 364.933 345.433Z" fill="#3F3D56"/>
<path d="M360.451 345.433H362.169C362.314 345.433 362.43 345.316 362.43 345.172V344.35C362.43 344.206 362.314 344.089 362.169 344.089H360.451C360.306 344.089 360.189 344.206 360.189 344.35V345.172C360.189 345.316 360.306 345.433 360.451 345.433Z" fill="#3F3D56"/>
<path d="M355.968 345.433H357.687C357.831 345.433 357.948 345.316 357.948 345.172V344.35C357.948 344.206 357.831 344.089 357.687 344.089H355.968C355.824 344.089 355.707 344.206 355.707 344.35V345.172C355.707 345.316 355.824 345.433 355.968 345.433Z" fill="#3F3D56"/>
<path d="M351.486 345.433H353.205C353.349 345.433 353.466 345.316 353.466 345.172V344.35C353.466 344.206 353.349 344.089 353.205 344.089H351.486C351.342 344.089 351.225 344.206 351.225 344.35V345.172C351.225 345.316 351.342 345.433 351.486 345.433Z" fill="#3F3D56"/>
<path d="M347.004 345.433H348.723C348.867 345.433 348.984 345.316 348.984 345.172V344.35C348.984 344.206 348.867 344.089 348.723 344.089H347.004C346.86 344.089 346.743 344.206 346.743 344.35V345.172C346.743 345.316 346.86 345.433 347.004 345.433Z" fill="#3F3D56"/>
<path d="M342.522 345.433H344.24C344.385 345.433 344.502 345.316 344.502 345.172V344.35C344.502 344.206 344.385 344.089 344.24 344.089H342.522C342.377 344.089 342.26 344.206 342.26 344.35V345.172C342.26 345.316 342.377 345.433 342.522 345.433Z" fill="#3F3D56"/>
<path d="M338.039 345.433H339.758C339.902 345.433 340.019 345.316 340.019 345.172V344.35C340.019 344.206 339.902 344.089 339.758 344.089H338.039C337.895 344.089 337.778 344.206 337.778 344.35V345.172C337.778 345.316 337.895 345.433 338.039 345.433Z" fill="#3F3D56"/>
<path d="M333.557 345.433H335.276C335.42 345.433 335.537 345.316 335.537 345.172V344.35C335.537 344.206 335.42 344.089 335.276 344.089H333.557C333.413 344.089 333.296 344.206 333.296 344.35V345.172C333.296 345.316 333.413 345.433 333.557 345.433Z" fill="#3F3D56"/>
<path d="M329.075 345.433H330.794C330.938 345.433 331.055 345.316 331.055 345.172V344.35C331.055 344.206 330.938 344.089 330.794 344.089H329.075C328.931 344.089 328.814 344.206 328.814 344.35V345.172C328.814 345.316 328.931 345.433 329.075 345.433Z" fill="#3F3D56"/>
<path d="M324.593 345.433H326.311C326.456 345.433 326.573 345.316 326.573 345.172V344.35C326.573 344.206 326.456 344.089 326.311 344.089H324.593C324.448 344.089 324.332 344.206 324.332 344.35V345.172C324.332 345.316 324.448 345.433 324.593 345.433Z" fill="#3F3D56"/>
<path d="M320.111 345.433H321.829C321.973 345.433 322.09 345.316 322.09 345.172V344.35C322.09 344.206 321.973 344.089 321.829 344.089H320.111C319.966 344.089 319.849 344.206 319.849 344.35V345.172C319.849 345.316 319.966 345.433 320.111 345.433Z" fill="#3F3D56"/>
<path d="M315.628 345.433H317.347C317.491 345.433 317.608 345.316 317.608 345.172V344.35C317.608 344.206 317.491 344.089 317.347 344.089H315.628C315.484 344.089 315.367 344.206 315.367 344.35V345.172C315.367 345.316 315.484 345.433 315.628 345.433Z" fill="#3F3D56"/>
<path d="M311.146 345.433H312.865C313.009 345.433 313.126 345.316 313.126 345.172V344.35C313.126 344.206 313.009 344.089 312.865 344.089H311.146C311.002 344.089 310.885 344.206 310.885 344.35V345.172C310.885 345.316 311.002 345.433 311.146 345.433Z" fill="#3F3D56"/>
<path d="M306.664 345.433H308.382C308.527 345.433 308.644 345.316 308.644 345.172V344.35C308.644 344.206 308.527 344.089 308.382 344.089H306.664C306.52 344.089 306.403 344.206 306.403 344.35V345.172C306.403 345.316 306.52 345.433 306.664 345.433Z" fill="#3F3D56"/>
<path d="M336.695 348.121H354.101C354.246 348.121 354.362 348.004 354.362 347.86V347.038C354.362 346.894 354.246 346.777 354.101 346.777H336.695C336.55 346.777 336.434 346.894 336.434 347.038V347.86C336.434 348.004 336.55 348.121 336.695 348.121Z" fill="#3F3D56"/>
<path d="M318.253 302.825H316.732C316.27 302.825 315.896 303.199 315.896 303.66C315.896 304.121 316.27 304.495 316.732 304.495H318.253C318.714 304.495 319.088 304.121 319.088 303.66C319.088 303.199 318.714 302.825 318.253 302.825Z" fill="white"/>
<path d="M335.655 302.825H334.133C333.672 302.825 333.298 303.199 333.298 303.66C333.298 304.121 333.672 304.495 334.133 304.495H335.655C336.116 304.495 336.49 304.121 336.49 303.66C336.49 303.199 336.116 302.825 335.655 302.825Z" fill="white"/>
<path d="M340.586 302.825H339.064C338.603 302.825 338.229 303.199 338.229 303.66C338.229 304.121 338.603 304.495 339.064 304.495H340.586C341.047 304.495 341.421 304.121 341.421 303.66C341.421 303.199 341.047 302.825 340.586 302.825Z" fill="white"/>
<path d="M330.922 302.686H321.465C321.004 302.686 320.63 303.06 320.63 303.521C320.63 303.982 321.004 304.356 321.465 304.356H330.922C331.383 304.356 331.757 303.982 331.757 303.521C331.757 303.06 331.383 302.686 330.922 302.686Z" fill="white"/>
<path d="M354.124 302.686H344.668C344.206 302.686 343.832 303.06 343.832 303.521C343.832 303.982 344.206 304.356 344.668 304.356H354.124C354.586 304.356 354.96 303.982 354.96 303.521C354.96 303.06 354.586 302.686 354.124 302.686Z" fill="white"/>
<path d="M322.894 306.593H321.372C320.911 306.593 320.537 306.967 320.537 307.428C320.537 307.889 320.911 308.263 321.372 308.263H322.894C323.355 308.263 323.729 307.889 323.729 307.428C323.729 306.967 323.355 306.593 322.894 306.593Z" fill="white"/>
<path d="M340.296 306.593H338.774C338.313 306.593 337.939 306.967 337.939 307.428C337.939 307.889 338.313 308.263 338.774 308.263H340.296C340.757 308.263 341.131 307.889 341.131 307.428C341.131 306.967 340.757 306.593 340.296 306.593Z" fill="white"/>
<path d="M345.226 306.593H343.705C343.243 306.593 342.869 306.967 342.869 307.428C342.869 307.889 343.243 308.263 343.705 308.263H345.226C345.687 308.263 346.061 307.889 346.061 307.428C346.061 306.967 345.687 306.593 345.226 306.593Z" fill="white"/>
<path d="M335.562 306.454H326.105C325.644 306.454 325.27 306.828 325.27 307.289C325.27 307.75 325.644 308.124 326.105 308.124H335.562C336.023 308.124 336.397 307.75 336.397 307.289C336.397 306.828 336.023 306.454 335.562 306.454Z" fill="white"/>
<path d="M358.765 306.454H349.308C348.847 306.454 348.473 306.828 348.473 307.289C348.473 307.75 348.847 308.124 349.308 308.124H358.765C359.226 308.124 359.6 307.75 359.6 307.289C359.6 306.828 359.226 306.454 358.765 306.454Z" fill="white"/>
<path d="M327.534 310.361H326.013C325.551 310.361 325.177 310.735 325.177 311.196C325.177 311.657 325.551 312.031 326.013 312.031H327.534C327.995 312.031 328.369 311.657 328.369 311.196C328.369 310.735 327.995 310.361 327.534 310.361Z" fill="white"/>
<path d="M344.936 310.361H343.414C342.953 310.361 342.579 310.735 342.579 311.196C342.579 311.657 342.953 312.031 343.414 312.031H344.936C345.397 312.031 345.771 311.657 345.771 311.196C345.771 310.735 345.397 310.361 344.936 310.361Z" fill="white"/>
<path d="M349.867 310.361H348.345C347.884 310.361 347.51 310.735 347.51 311.196C347.51 311.657 347.884 312.031 348.345 312.031H349.867C350.328 312.031 350.702 311.657 350.702 311.196C350.702 310.735 350.328 310.361 349.867 310.361Z" fill="white"/>
<path d="M340.203 310.222H330.746C330.285 310.222 329.911 310.596 329.911 311.057C329.911 311.518 330.285 311.892 330.746 311.892H340.203C340.664 311.892 341.038 311.518 341.038 311.057C341.038 310.596 340.664 310.222 340.203 310.222Z" fill="white"/>
<path d="M363.405 310.222H353.949C353.487 310.222 353.113 310.596 353.113 311.057C353.113 311.518 353.487 311.892 353.949 311.892H363.405C363.867 311.892 364.241 311.518 364.241 311.057C364.241 310.596 363.867 310.222 363.405 310.222Z" fill="white"/>
<path d="M332.175 314.129H330.653C330.192 314.129 329.818 314.503 329.818 314.964C329.818 315.425 330.192 315.799 330.653 315.799H332.175C332.636 315.799 333.01 315.425 333.01 314.964C333.01 314.503 332.636 314.129 332.175 314.129Z" fill="white"/>
<path d="M349.577 314.129H348.055C347.594 314.129 347.22 314.503 347.22 314.964C347.22 315.425 347.594 315.799 348.055 315.799H349.577C350.038 315.799 350.412 315.425 350.412 314.964C350.412 314.503 350.038 314.129 349.577 314.129Z" fill="white"/>
<path d="M354.507 314.129H352.986C352.524 314.129 352.15 314.503 352.15 314.964C352.15 315.425 352.524 315.799 352.986 315.799H354.507C354.968 315.799 355.342 315.425 355.342 314.964C355.342 314.503 354.968 314.129 354.507 314.129Z" fill="white"/>
<path d="M344.843 313.99H335.386C334.925 313.99 334.551 314.364 334.551 314.825C334.551 315.286 334.925 315.66 335.386 315.66H344.843C345.304 315.66 345.678 315.286 345.678 314.825C345.678 314.364 345.304 313.99 344.843 313.99Z" fill="white"/>
<path d="M335.655 329.113H334.133C333.672 329.113 333.298 329.486 333.298 329.947C333.298 330.408 333.672 330.782 334.133 330.782H335.655C336.116 330.782 336.49 330.408 336.49 329.947C336.49 329.486 336.116 329.113 335.655 329.113Z" fill="white"/>
<path d="M340.586 329.113H339.064C338.603 329.113 338.229 329.486 338.229 329.947C338.229 330.408 338.603 330.782 339.064 330.782H340.586C341.047 330.782 341.421 330.408 341.421 329.947C341.421 329.486 341.047 329.113 340.586 329.113Z" fill="white"/>
<path d="M354.124 329.252H344.668C344.206 329.252 343.832 329.626 343.832 330.087C343.832 330.548 344.206 330.921 344.668 330.921H354.124C354.586 330.921 354.96 330.548 354.96 330.087C354.96 329.626 354.586 329.252 354.124 329.252Z" fill="white"/>
<path d="M318.253 329.113H316.732C316.27 329.113 315.896 329.486 315.896 329.947C315.896 330.408 316.27 330.782 316.732 330.782H318.253C318.714 330.782 319.088 330.408 319.088 329.947C319.088 329.486 318.714 329.113 318.253 329.113Z" fill="white"/>
<path d="M330.922 329.252H321.465C321.004 329.252 320.63 329.626 320.63 330.087C320.63 330.548 321.004 330.921 321.465 330.921H330.922C331.383 330.921 331.757 330.548 331.757 330.087C331.757 329.626 331.383 329.252 330.922 329.252Z" fill="white"/>
<path d="M322.894 325.345H321.372C320.911 325.345 320.537 325.718 320.537 326.179C320.537 326.64 320.911 327.014 321.372 327.014H322.894C323.355 327.014 323.729 326.64 323.729 326.179C323.729 325.718 323.355 325.345 322.894 325.345Z" fill="white"/>
<path d="M340.296 325.345H338.774C338.313 325.345 337.939 325.718 337.939 326.179C337.939 326.64 338.313 327.014 338.774 327.014H340.296C340.757 327.014 341.131 326.64 341.131 326.179C341.131 325.718 340.757 325.345 340.296 325.345Z" fill="white"/>
<path d="M345.226 325.345H343.705C343.243 325.345 342.869 325.718 342.869 326.179C342.869 326.64 343.243 327.014 343.705 327.014H345.226C345.687 327.014 346.061 326.64 346.061 326.179C346.061 325.718 345.687 325.345 345.226 325.345Z" fill="white"/>
<path d="M335.562 325.484H326.105C325.644 325.484 325.27 325.858 325.27 326.319C325.27 326.78 325.644 327.153 326.105 327.153H335.562C336.023 327.153 336.397 326.78 336.397 326.319C336.397 325.858 336.023 325.484 335.562 325.484Z" fill="white"/>
<path d="M327.534 321.577H326.013C325.551 321.577 325.177 321.95 325.177 322.411C325.177 322.872 325.551 323.246 326.013 323.246H327.534C327.995 323.246 328.369 322.872 328.369 322.411C328.369 321.95 327.995 321.577 327.534 321.577Z" fill="white"/>
<path d="M344.936 321.577H343.414C342.953 321.577 342.579 321.95 342.579 322.411C342.579 322.872 342.953 323.246 343.414 323.246H344.936C345.397 323.246 345.771 322.872 345.771 322.411C345.771 321.95 345.397 321.577 344.936 321.577Z" fill="white"/>
<path d="M349.867 321.577H348.345C347.884 321.577 347.51 321.95 347.51 322.411C347.51 322.872 347.884 323.246 348.345 323.246H349.867C350.328 323.246 350.702 322.872 350.702 322.411C350.702 321.95 350.328 321.577 349.867 321.577Z" fill="white"/>
<path d="M340.203 321.716H330.746C330.285 321.716 329.911 322.089 329.911 322.551C329.911 323.012 330.285 323.385 330.746 323.385H340.203C340.664 323.385 341.038 323.012 341.038 322.551C341.038 322.089 340.664 321.716 340.203 321.716Z" fill="white"/>
<path d="M332.175 317.809H330.653C330.192 317.809 329.818 318.182 329.818 318.643C329.818 319.104 330.192 319.478 330.653 319.478H332.175C332.636 319.478 333.01 319.104 333.01 318.643C333.01 318.182 332.636 317.809 332.175 317.809Z" fill="white"/>
<path d="M349.577 317.809H348.055C347.594 317.809 347.22 318.182 347.22 318.643C347.22 319.104 347.594 319.478 348.055 319.478H349.577C350.038 319.478 350.412 319.104 350.412 318.643C350.412 318.182 350.038 317.809 349.577 317.809Z" fill="white"/>
<path d="M354.507 317.809H352.986C352.524 317.809 352.15 318.182 352.15 318.643C352.15 319.104 352.524 319.478 352.986 319.478H354.507C354.968 319.478 355.342 319.104 355.342 318.643C355.342 318.182 354.968 317.809 354.507 317.809Z" fill="white"/>
<path d="M344.843 317.948H335.386C334.925 317.948 334.551 318.321 334.551 318.783C334.551 319.244 334.925 319.617 335.386 319.617H344.843C345.304 319.617 345.678 319.244 345.678 318.783C345.678 318.321 345.304 317.948 344.843 317.948Z" fill="white"/>
<path d="M310.164 373.272L303.021 361.989L325.441 344.127L334.695 333.882C335.898 332.55 337.428 331.558 339.135 331.003C340.841 330.449 342.663 330.351 344.419 330.721C346.175 331.09 347.803 331.914 349.14 333.109C350.478 334.305 351.478 335.83 352.041 337.533C352.875 340.056 352.696 342.804 351.541 345.198C350.386 347.591 348.345 349.443 345.85 350.361L331.217 355.749L310.164 373.272Z" fill="#FFB6B6"/>
<path d="M142.567 291.459V346.3H181.011V291.459C181.012 291.065 180.886 290.68 180.652 290.363C180.418 290.045 180.088 289.811 179.711 289.695C179.533 289.636 179.347 289.607 179.16 289.609H144.423C144.18 289.608 143.939 289.656 143.713 289.749C143.488 289.841 143.284 289.978 143.111 290.149C142.939 290.321 142.802 290.525 142.709 290.75C142.615 290.975 142.567 291.216 142.567 291.459ZM157.57 310.303C157.58 309.222 158.017 308.188 158.785 307.427C159.554 306.666 160.592 306.239 161.674 306.239C162.756 306.239 163.794 306.666 164.562 307.427C165.331 308.188 165.768 309.222 165.778 310.303V316.666C165.772 317.75 165.337 318.788 164.568 319.553C163.799 320.317 162.759 320.746 161.674 320.746C160.589 320.746 159.548 320.317 158.779 319.553C158.01 318.788 157.575 317.75 157.57 316.666V310.303Z" fill="#2F2E41"/>
<path d="M142.449 344.547V349.835C142.45 350.109 142.559 350.371 142.752 350.566C142.945 350.76 143.208 350.87 143.482 350.872H180.096C180.371 350.871 180.633 350.761 180.827 350.567C181.02 350.372 181.129 350.109 181.129 349.835V344.547H142.449Z" fill="#3F3D56"/>
<path d="M82.0882 208.834V308.966C82.0892 310.242 82.5969 311.466 83.4998 312.368C84.4027 313.27 85.627 313.777 86.9038 313.778H235.384C236.661 313.777 237.886 313.27 238.788 312.368C239.691 311.466 240.199 310.242 240.2 308.966V208.834C240.197 207.559 239.688 206.337 238.786 205.436C237.883 204.535 236.66 204.028 235.384 204.026H86.9038C85.6281 204.028 84.4049 204.535 83.5024 205.436C82.5998 206.337 82.0913 207.559 82.0882 208.834Z" fill="#3F3D56"/>
<path d="M85.5715 210.079V307.731C85.5727 308.413 85.8442 309.066 86.3266 309.548C86.809 310.03 87.4629 310.302 88.1452 310.303H234.148C234.831 310.302 235.485 310.03 235.967 309.548C236.449 309.066 236.721 308.413 236.722 307.731V210.079C236.722 209.397 236.451 208.742 235.969 208.259C235.486 207.776 234.831 207.504 234.148 207.502H88.1452C87.4621 207.504 86.8076 207.776 86.3251 208.259C85.8426 208.742 85.5716 209.397 85.5715 210.079Z" fill="white"/>
<path d="M112.667 350.514C112.816 350.7 113.005 350.85 113.22 350.953C113.435 351.056 113.67 351.109 113.909 351.108H200.771C201.009 351.107 201.243 351.054 201.457 350.952C201.672 350.85 201.861 350.701 202.01 350.516C202.16 350.332 202.267 350.117 202.323 349.886C202.378 349.655 202.382 349.415 202.333 349.183L200.985 342.782C200.929 342.521 200.809 342.278 200.635 342.075C200.461 341.873 200.239 341.717 199.99 341.622C199.809 341.551 199.617 341.514 199.423 341.515H115.252C115.057 341.514 114.865 341.551 114.684 341.622C114.435 341.717 114.213 341.873 114.039 342.075C113.865 342.278 113.745 342.521 113.689 342.782L112.341 349.183C112.293 349.415 112.297 349.655 112.354 349.885C112.41 350.115 112.517 350.33 112.667 350.514Z" fill="#2F2E41"/>
<path d="M229.41 220.954H92.7955C92.6535 220.951 92.5184 220.892 92.4191 220.791C92.3197 220.689 92.2641 220.553 92.2641 220.411C92.2641 220.269 92.3197 220.133 92.4191 220.031C92.5184 219.93 92.6535 219.871 92.7955 219.868H229.41C229.552 219.871 229.687 219.93 229.787 220.031C229.886 220.133 229.941 220.269 229.941 220.411C229.941 220.553 229.886 220.689 229.787 220.791C229.687 220.892 229.552 220.951 229.41 220.954Z" fill="#3F3D56"/>
<path d="M102.095 217.096C103.853 217.096 105.279 215.64 105.279 213.843C105.279 212.047 103.853 210.591 102.095 210.591C100.337 210.591 98.9112 212.047 98.9112 213.843C98.9112 215.64 100.337 217.096 102.095 217.096Z" fill="#3F3D56"/>
<path d="M113.094 217.096C114.852 217.096 116.278 215.64 116.278 213.843C116.278 212.047 114.852 210.591 113.094 210.591C111.335 210.591 109.91 212.047 109.91 213.843C109.91 215.64 111.335 217.096 113.094 217.096Z" fill="#3F3D56"/>
<path d="M124.093 217.096C125.851 217.096 127.277 215.64 127.277 213.843C127.277 212.047 125.851 210.591 124.093 210.591C122.334 210.591 120.909 212.047 120.909 213.843C120.909 215.64 122.334 217.096 124.093 217.096Z" fill="#3F3D56"/>
<path d="M222.787 211.395H214.975C214.821 211.399 214.674 211.462 214.566 211.573C214.458 211.683 214.397 211.831 214.397 211.986C214.397 212.14 214.458 212.288 214.566 212.399C214.674 212.509 214.821 212.573 214.975 212.577H222.787C222.942 212.574 223.091 212.511 223.2 212.401C223.309 212.29 223.37 212.141 223.37 211.986C223.37 211.831 223.309 211.681 223.2 211.571C223.091 211.46 222.942 211.397 222.787 211.395Z" fill="#3F3D56"/>
<path d="M222.787 213.614H214.975C214.821 213.617 214.673 213.681 214.565 213.792C214.457 213.902 214.397 214.05 214.397 214.205C214.397 214.359 214.457 214.508 214.565 214.618C214.673 214.729 214.821 214.792 214.975 214.796H222.787C222.943 214.794 223.091 214.731 223.201 214.62C223.31 214.51 223.371 214.36 223.371 214.205C223.371 214.049 223.31 213.9 223.201 213.79C223.091 213.679 222.943 213.616 222.787 213.614Z" fill="#3F3D56"/>
<path d="M222.787 215.833H214.975C214.821 215.837 214.674 215.901 214.566 216.011C214.458 216.121 214.397 216.27 214.397 216.424C214.397 216.578 214.458 216.727 214.566 216.837C214.674 216.947 214.821 217.011 214.975 217.015H222.787C222.942 217.013 223.091 216.949 223.2 216.839C223.309 216.728 223.37 216.579 223.37 216.424C223.37 216.269 223.309 216.12 223.2 216.009C223.091 215.898 222.942 215.835 222.787 215.833Z" fill="#3F3D56"/>
<path d="M411.119 346.867C411.355 347.553 411.802 348.147 412.396 348.563C412.991 348.979 413.702 349.196 414.427 349.183L428.602 348.819C429.333 348.805 430.04 348.554 430.617 348.105C431.193 347.657 431.609 347.033 431.802 346.329L433.808 324.893C434.52 325.215 435.295 325.374 436.076 325.359C436.754 325.342 437.423 325.191 438.044 324.916C438.664 324.641 439.224 324.246 439.692 323.754C440.16 323.263 440.526 322.684 440.77 322.051C441.014 321.418 441.131 320.743 441.114 320.064C441.097 319.386 440.946 318.718 440.671 318.098C440.395 317.478 440 316.918 439.509 316.451C439.017 315.983 438.437 315.617 437.804 315.373C437.17 315.129 436.495 315.013 435.816 315.03C435.504 315.029 435.193 315.061 434.887 315.126C434.555 314.767 434.152 314.482 433.703 314.288C433.253 314.094 432.769 313.997 432.279 314.002L410.475 314.564C410.294 314.571 410.114 314.593 409.937 314.631C409.459 314.72 409.006 314.911 408.607 315.189C408.209 315.468 407.875 315.829 407.628 316.248C407.381 316.667 407.227 317.134 407.175 317.617C407.124 318.1 407.176 318.589 407.33 319.05L411.119 346.867ZM434.22 323.438L435.647 318.329C435.809 317.739 435.813 317.117 435.658 316.525C435.727 316.525 435.788 316.492 435.857 316.492C436.836 316.472 437.783 316.84 438.49 317.516C439.197 318.193 439.608 319.122 439.63 320.1C439.653 321.078 439.287 322.025 438.612 322.734C437.938 323.442 437.009 323.855 436.031 323.88C435.398 323.9 434.772 323.747 434.22 323.438Z" fill="#2F2E41"/>
<path d="M409.937 314.631C410.402 317.285 415.625 319.151 421.905 318.827C427.679 318.561 432.401 316.535 433.266 314.133C432.946 314.038 432.613 313.994 432.279 314.002L410.475 314.564C410.294 314.571 410.114 314.593 409.937 314.631Z" fill="#3F3D56"/>
<path d="M423.056 335.088C423.084 335.081 423.111 335.069 423.136 335.053L426.215 333.039C426.252 333.015 426.282 332.982 426.304 332.943C426.325 332.904 426.336 332.86 426.336 332.816C426.336 332.771 426.325 332.728 426.304 332.689C426.282 332.65 426.252 332.616 426.215 332.592L423.015 330.498C422.986 330.478 422.953 330.465 422.918 330.458C422.884 330.452 422.848 330.452 422.814 330.459C422.779 330.466 422.746 330.48 422.717 330.5C422.688 330.519 422.663 330.545 422.644 330.574C422.625 330.604 422.611 330.637 422.605 330.671C422.598 330.706 422.599 330.741 422.606 330.776C422.613 330.81 422.627 330.843 422.647 330.872C422.667 330.901 422.692 330.926 422.722 330.945L425.58 332.815L422.843 334.606C422.79 334.64 422.751 334.692 422.733 334.753C422.715 334.814 422.719 334.879 422.745 334.937C422.77 334.995 422.815 335.042 422.872 335.069C422.929 335.097 422.994 335.104 423.056 335.088Z" fill="#6366F1"/>
<path d="M418.194 335.313C418.245 335.299 418.292 335.271 418.327 335.232C418.363 335.192 418.386 335.142 418.393 335.09C418.4 335.037 418.391 334.983 418.368 334.935C418.344 334.888 418.307 334.848 418.261 334.821L415.424 333.196L418.166 331.16C418.194 331.139 418.218 331.113 418.236 331.083C418.254 331.052 418.266 331.019 418.271 330.984C418.276 330.95 418.274 330.914 418.266 330.88C418.257 330.846 418.242 330.814 418.221 330.786C418.2 330.758 418.174 330.734 418.144 330.716C418.114 330.698 418.08 330.686 418.046 330.681C418.011 330.676 417.975 330.678 417.941 330.686C417.907 330.695 417.875 330.71 417.847 330.731L414.777 333.01C414.741 333.037 414.712 333.072 414.694 333.112C414.675 333.152 414.666 333.196 414.669 333.241C414.672 333.285 414.685 333.328 414.709 333.366C414.732 333.403 414.764 333.435 414.803 333.457L417.995 335.285C418.055 335.32 418.126 335.33 418.194 335.313Z" fill="#6366F1"/>
<path d="M422.749 336.853C422.775 336.847 422.8 336.836 422.823 336.822C422.853 336.804 422.879 336.78 422.9 336.752C422.92 336.723 422.935 336.691 422.944 336.657C422.952 336.623 422.954 336.587 422.948 336.553C422.943 336.518 422.931 336.485 422.912 336.455L418.549 329.285C418.512 329.224 418.452 329.181 418.383 329.164C418.314 329.148 418.242 329.159 418.181 329.196C418.12 329.233 418.077 329.292 418.06 329.361C418.043 329.43 418.055 329.503 418.091 329.563L422.455 336.733C422.485 336.782 422.53 336.82 422.582 336.841C422.635 336.863 422.694 336.867 422.749 336.853Z" fill="#6366F1"/>
<path d="M177.426 250.471H153.781C152.816 250.471 152.034 251.252 152.034 252.216V254.525C152.034 255.489 152.816 256.27 153.781 256.27H177.426C178.391 256.27 179.172 255.489 179.172 254.525V252.216C179.172 251.252 178.391 250.471 177.426 250.471Z" fill="#6366F1"/>
<path d="M191.208 262.069H139.998C139.034 262.069 138.252 262.851 138.252 263.815V266.123C138.252 267.087 139.034 267.869 139.998 267.869H191.208C192.173 267.869 192.955 267.087 192.955 266.123V263.815C192.955 262.851 192.173 262.069 191.208 262.069Z" fill="#E6E6E6"/>
<path d="M191.208 273.668H139.998C139.034 273.668 138.252 274.45 138.252 275.414V277.722C138.252 278.686 139.034 279.468 139.998 279.468H191.208C192.173 279.468 192.955 278.686 192.955 277.722V275.414C192.955 274.45 192.173 273.668 191.208 273.668Z" fill="#E6E6E6"/>
<path d="M195.549 312.509L195.665 312.875L195.672 312.887L199.163 323.495L203.179 335.719L210.736 358.691L210.809 362.26V362.272L211.371 390.978L209.814 394.87L211.566 401.251C211.566 401.251 210.76 391.606 206.439 397.145C203.991 400.292 201.128 403.513 198.778 406.533C202.203 407.917 205.682 409.17 209.216 410.29C209.979 410.534 210.748 410.766 211.517 410.998C211.682 411.046 211.847 411.095 212.012 411.144C223.727 414.606 235.838 416.552 248.049 416.933C248.683 416.951 249.306 416.963 249.91 416.976C250.124 416.982 250.332 416.988 250.539 416.988C251.223 416.994 251.9 417 252.584 417C253.963 417 255.337 416.98 256.704 416.939C266.824 416.654 276.885 415.294 286.717 412.883C286.649 408.826 286.466 404.086 286.204 399.023C286.082 396.541 283.341 393.851 283.176 391.252C283.06 389.3 285.52 387.464 285.392 385.482C284.562 373.276 283.524 377.961 282.755 369.317C282.676 368.47 282.603 367.658 282.535 366.884C282.041 361.333 281.699 357.862 281.699 357.862L284.983 337.177L290.141 304.701L289.744 304.048L289.298 303.828L262.094 290.372L260.616 286.59C260.186 285.5 259.439 284.564 258.472 283.902C257.505 283.24 256.362 282.882 255.19 282.875L237.269 282.802C236.339 282.798 235.422 283.015 234.593 283.436C233.763 283.857 233.047 284.47 232.502 285.223L227.65 291.94L195.549 312.509Z" fill="#3F3D56"/>
<path d="M214.868 353.58L210.809 362.26L208.038 368.189L203.271 393.132L200.884 395.663L198.839 386.702L177.438 391.45C176.736 387.553 177.25 391.582 176.817 387.306C176.939 387.184 177.067 387.062 177.195 386.94C177.537 386.623 177.824 386.324 177.818 386.037C177.574 371.288 178.306 346.186 184.422 330.979C185.38 328.496 186.643 326.142 188.182 323.97C188.304 323.806 188.42 323.641 188.536 323.476C191.356 319.53 193.138 315.644 195.665 312.881V312.875C195.681 312.862 195.696 312.848 195.708 312.832C195.717 312.827 195.726 312.821 195.733 312.814L213.092 303.615L213.837 324.525L214.368 339.556L214.868 353.58Z" fill="#3F3D56"/>
<path d="M277.463 356.045L282.533 366.887L284.303 370.662L289.068 395.603L291.447 398.128L293.497 389.168L294.46 388.971L311.827 385.376L316.889 401.443C318.03 399.543 318.48 397.308 318.162 395.115C317.844 392.922 316.778 390.907 315.144 389.409C314.798 389.096 314.51 388.792 314.519 388.504C314.807 371.156 313.745 339.478 304.156 326.441C301.11 322.303 299.283 318.182 296.624 315.303C296.616 315.295 296.616 315.286 296.608 315.286L290.138 304.7L289.743 304.05L289.299 303.828L277.463 356.045Z" fill="#3F3D56"/>
<path d="M246.747 277.705C259.915 277.705 270.589 267.038 270.589 253.879C270.589 240.72 259.915 230.052 246.747 230.052C233.58 230.052 222.906 240.72 222.906 253.879C222.906 267.038 233.58 277.705 246.747 277.705Z" fill="#FFB6B6"/>
<path d="M278.972 237.236C278.787 237.039 278.565 236.881 278.317 236.771C278.07 236.662 277.803 236.604 277.533 236.6L277.891 235.605C278.008 235.292 278.04 234.953 277.983 234.624C277.926 234.294 277.782 233.986 277.566 233.73C277.351 233.474 277.071 233.28 276.756 233.168C276.441 233.056 276.101 233.03 275.772 233.092L274.467 233.343L274.59 232.472C274.637 232.147 274.599 231.816 274.479 231.51C274.359 231.205 274.162 230.936 273.907 230.73C273.651 230.524 273.347 230.388 273.023 230.335C272.699 230.282 272.367 230.314 272.059 230.429C271.779 230.539 271.478 230.585 271.178 230.564C270.878 230.543 270.587 230.454 270.325 230.306C270.063 230.162 269.835 229.963 269.657 229.721C269.48 229.48 269.357 229.204 269.298 228.91L268.843 226.718L268.795 226.6C266.58 222.911 262.321 220.226 257.109 219.242C252.47 218.36 247.714 218.809 243.128 219.232C241.309 219.403 239.254 219.595 237.542 220.643C236.087 221.542 234.856 223.338 235.107 225.151C230.586 223.766 225.738 226.531 223.336 230.017C220.489 234.167 220.024 239.364 219.949 243.428C219.746 253.042 221.731 260.908 225.835 266.812C226.134 267.239 226.209 268.132 226.803 268.432L226.68 268.234C227.344 268.565 228.018 269.1 227.766 269.672C227.044 271.319 231.843 274.961 235.225 276.164C241.394 278.362 249.597 278.174 255.365 277.383L255.568 276.019C257.65 275.736 259.116 275.196 259.528 274.351C260.255 273.731 260.876 273.175 261.417 272.661L261.422 272.656C261.433 272.645 261.454 272.629 261.465 272.619C264.07 270.121 264.675 268.699 264.948 266.533C265.21 264.411 264.745 262.256 264.268 260.315C274.296 261.865 260.32 249.642 269.662 247.278C269.769 247.245 269.878 247.218 269.988 247.198C270.261 247.134 270.534 247.07 270.796 246.995C272.06 246.652 273.27 246.135 274.392 245.46C277.003 243.872 277.864 241.765 279.213 239.391C279.407 239.053 279.489 238.662 279.446 238.274C279.402 237.886 279.236 237.523 278.972 237.236Z" fill="#2F2E41"/>
<path d="M331.071 357.741C331.066 358.677 331.055 359.987 331.012 361.607C331.007 361.832 331.002 362.062 330.996 362.297C330.927 365.276 330.857 367.773 330.745 370.548C330.74 370.74 330.734 370.928 330.724 371.12C330.574 374.992 330.338 379.499 329.932 386.638C329.177 399.824 327.861 388.451 326.539 393.076C326.475 393.306 326.406 393.579 326.341 393.899C326.141 395.063 325.804 396.2 325.335 397.284C324.634 397.701 323.912 398.102 323.201 398.503C321.173 399.632 319.113 400.717 317.037 401.749C315.87 402.327 314.698 402.893 313.521 403.439C313.334 403.524 313.152 403.61 312.97 403.69C306.942 406.477 300.73 408.846 294.377 410.781C293.135 411.155 291.899 411.519 290.647 411.855C289.342 412.219 288.036 412.561 286.714 412.882C276.883 415.294 266.822 416.655 256.703 416.941C255.338 416.983 253.963 417 252.583 417C251.898 417 251.224 416.994 250.539 416.989C250.33 416.989 250.121 416.983 249.913 416.978C249.308 416.962 248.682 416.951 248.051 416.935C235.84 416.555 223.729 414.608 212.014 411.144L211.516 411C210.746 410.765 209.981 410.535 209.216 410.289C205.684 409.171 202.204 407.92 198.776 406.535C196.16 405.482 193.574 404.351 191.018 403.145C190.995 403.138 190.973 403.128 190.954 403.113C190.419 402.867 189.878 402.61 189.343 402.348C189.274 402.311 189.199 402.273 189.124 402.236C187.128 401.263 185.154 400.243 183.201 399.177C181.558 395.407 179.247 394.685 177.813 391.37C177.395 390.385 177.094 389.355 176.914 388.301C176.914 388.29 176.908 388.279 176.908 388.263C177.058 390.253 176.272 384.734 176.903 388.242C176.898 388.178 176.892 388.108 176.887 388.028C176.871 387.836 176.85 387.6 176.817 387.306C174.982 369.398 175.1 348.918 174.303 332.043C174.249 330.952 174.194 329.907 174.137 328.909C174.121 328.577 174.099 328.251 174.078 327.93C174.115 327.834 174.158 327.733 174.206 327.636C174.217 327.609 174.229 327.582 174.244 327.556C174.26 327.523 174.277 327.491 174.297 327.46C174.308 327.444 174.324 327.422 174.335 327.406C174.343 327.388 174.351 327.37 174.361 327.353C174.41 327.278 174.463 327.198 174.522 327.123C174.549 327.091 174.57 327.064 174.597 327.037C174.615 327.01 174.637 326.985 174.661 326.963C174.678 326.937 174.697 326.914 174.72 326.893C174.741 326.872 174.763 326.845 174.79 326.818C174.801 326.801 174.815 326.787 174.832 326.776C174.875 326.727 174.921 326.682 174.971 326.642C175.162 326.466 175.366 326.305 175.581 326.161C175.656 326.112 175.737 326.064 175.811 326.011C176.351 325.688 176.919 325.416 177.508 325.198C177.711 325.123 177.914 325.054 178.134 324.979C178.214 324.957 178.289 324.931 178.369 324.904C178.487 324.867 178.605 324.829 178.728 324.802C179.338 324.621 179.996 324.465 180.707 324.321C180.793 324.305 180.884 324.289 180.975 324.268C181.103 324.241 181.237 324.22 181.371 324.198C181.553 324.166 181.74 324.134 181.927 324.102C183.516 323.851 185.32 323.663 187.31 323.54C187.497 323.53 187.685 323.519 187.872 323.508C188.091 323.498 188.311 323.487 188.535 323.476C188.723 323.466 188.915 323.46 189.108 323.455C189.295 323.444 189.488 323.439 189.686 323.433C190.226 323.417 190.783 323.401 191.35 323.391C192.966 323.359 194.667 323.369 196.454 323.407C197.284 323.428 198.129 323.45 198.996 323.487C199.055 323.487 199.108 323.492 199.162 323.492C199.916 323.519 200.676 323.551 201.457 323.594C202.003 323.621 202.554 323.647 203.105 323.679C203.624 323.712 204.149 323.744 204.678 323.781C205.09 323.802 205.502 323.835 205.92 323.861C206.273 323.888 206.626 323.915 206.979 323.936L207.461 323.968C207.723 323.99 207.985 324.006 208.252 324.032C208.841 324.08 209.43 324.129 210.029 324.177C210.623 324.23 211.227 324.284 211.832 324.337C212.437 324.391 213.047 324.449 213.657 324.508C213.721 324.514 213.78 324.519 213.839 324.524C214.395 324.583 214.951 324.637 215.513 324.695C215.642 324.706 215.775 324.717 215.904 324.733C216.44 324.787 216.986 324.85 217.526 324.907C217.692 324.925 217.857 324.942 218.024 324.96C218.447 325.006 218.864 325.046 219.291 325.096C219.853 325.161 220.425 325.219 220.982 325.294C221.415 325.342 221.848 325.391 222.282 325.444C222.961 325.524 223.652 325.61 224.342 325.701C224.604 325.733 224.866 325.765 225.128 325.802C227.097 326.048 229.088 326.321 231.11 326.604C234.176 327.038 237.29 327.508 240.426 328.016C243.567 328.524 246.725 329.061 249.902 329.626C250.705 329.77 251.507 329.914 252.315 330.064C252.679 330.134 253.043 330.203 253.407 330.273C254.027 330.385 254.648 330.503 255.269 330.62C255.889 330.738 256.51 330.855 257.131 330.978C257.869 331.123 258.613 331.267 259.351 331.412C264.215 332.374 269.052 333.401 273.771 334.476C274.547 334.652 275.323 334.834 276.093 335.01C277.634 335.369 279.161 335.732 280.674 336.101C281.091 336.197 281.503 336.299 281.915 336.401C282.942 336.657 283.97 336.914 284.981 337.176L285.157 337.224C285.901 337.406 286.629 337.593 287.356 337.785C289.074 338.235 290.763 338.689 292.424 339.149C293.526 339.454 294.616 339.762 295.693 340.074C297.303 340.539 298.882 341.01 300.417 341.486C300.797 341.603 301.177 341.721 301.552 341.833C302.675 342.181 303.783 342.534 304.858 342.887C305.715 343.165 306.549 343.448 307.373 343.732C308.197 344.015 309.005 344.298 309.797 344.582C310.305 344.764 310.808 344.956 311.311 345.138C312.034 345.405 312.745 345.673 313.441 345.94C313.655 346.02 313.864 346.106 314.072 346.186C314.206 346.245 314.334 346.293 314.463 346.346C314.714 346.448 314.971 346.544 315.217 346.646C315.469 346.742 315.715 346.844 315.961 346.951C316.202 347.047 316.448 347.148 316.683 347.25C316.924 347.346 317.16 347.448 317.395 347.555C317.593 347.635 317.786 347.721 317.973 347.806C318.353 347.972 318.733 348.138 319.102 348.309C319.284 348.394 319.466 348.475 319.648 348.56L320.065 348.753C320.124 348.785 320.183 348.811 320.242 348.838C320.375 348.902 320.514 348.972 320.648 349.036C320.959 349.18 321.264 349.335 321.563 349.48C321.964 349.683 322.355 349.886 322.73 350.084C323.11 350.287 323.479 350.491 323.832 350.688C323.891 350.72 323.944 350.753 324.003 350.785C324.083 350.827 324.164 350.876 324.244 350.918C324.517 351.073 324.779 351.234 325.041 351.389C325.555 351.704 326.042 352.014 326.496 352.325C326.598 352.394 326.694 352.464 326.796 352.528C327.133 352.768 327.454 353.004 327.754 353.244C327.754 353.25 327.754 353.25 327.759 353.25C327.861 353.324 327.957 353.405 328.054 353.48C328.134 353.554 328.219 353.619 328.3 353.693C328.578 353.934 328.835 354.164 329.07 354.399C329.149 354.472 329.224 354.549 329.295 354.629C329.326 354.655 329.355 354.684 329.38 354.715C329.488 354.822 329.584 354.929 329.675 355.036C329.689 355.05 329.701 355.066 329.712 355.084C329.841 355.233 329.958 355.383 330.071 355.533C330.124 355.608 330.183 355.683 330.231 355.757C330.295 355.848 330.36 355.945 330.413 356.036C330.461 356.11 330.504 356.191 330.547 356.266C330.66 356.458 330.757 356.66 330.836 356.87C330.896 357.012 330.944 357.158 330.98 357.308C331.021 357.45 331.051 357.595 331.071 357.741Z" fill="#2F2E41"/>
<path opacity="0.2" d="M331.071 357.741C331.066 358.677 331.055 359.987 331.013 361.607C331.007 361.832 330.996 362.062 330.991 362.297C330.938 364.57 330.857 367.377 330.745 370.548C330.74 370.74 330.734 370.928 330.724 371.12C330.574 374.992 330.338 379.499 329.932 386.638C329.177 399.824 327.861 388.451 326.539 393.076C322.869 390.819 318.845 388.456 314.543 386.028C313.767 385.59 312.984 385.15 312.194 384.707C303.59 379.911 293.981 374.885 283.948 369.906C283.552 369.708 283.151 369.511 282.755 369.318C259.774 357.966 234.69 346.924 214.368 339.555C210.446 338.133 206.701 336.85 203.18 335.721C195.764 333.353 189.354 331.695 184.421 330.978C179.284 330.23 175.737 330.497 174.303 332.042C174.249 330.952 174.194 329.907 174.137 328.909C174.115 328.577 174.094 328.251 174.073 327.93C174.106 327.842 174.148 327.758 174.19 327.674C174.196 327.661 174.2 327.649 174.206 327.636C174.217 327.609 174.229 327.582 174.244 327.556C174.26 327.523 174.277 327.491 174.297 327.46C174.315 327.422 174.336 327.386 174.361 327.353C174.41 327.278 174.463 327.198 174.522 327.123C174.565 327.067 174.612 327.013 174.661 326.963C174.678 326.937 174.697 326.914 174.72 326.893C174.741 326.872 174.763 326.845 174.789 326.818C174.801 326.801 174.815 326.787 174.832 326.775C174.875 326.727 174.921 326.682 174.971 326.642C175.162 326.466 175.366 326.305 175.581 326.161C175.656 326.112 175.737 326.064 175.811 326.011C176.351 325.688 176.918 325.416 177.508 325.198C177.711 325.123 177.914 325.054 178.134 324.979C178.214 324.957 178.289 324.931 178.369 324.904C178.487 324.867 178.605 324.829 178.728 324.802C179.338 324.621 179.996 324.465 180.707 324.321C180.921 324.278 181.146 324.236 181.371 324.198C181.553 324.166 181.74 324.134 181.927 324.102C183.516 323.851 185.32 323.663 187.31 323.54C187.497 323.53 187.685 323.519 187.872 323.508C188.091 323.498 188.311 323.487 188.535 323.476C188.723 323.466 188.915 323.46 189.108 323.455C189.295 323.444 189.488 323.439 189.686 323.433C190.226 323.417 190.783 323.401 191.35 323.391C192.966 323.364 194.667 323.375 196.454 323.412C197.284 323.428 198.129 323.455 198.996 323.492C199.049 323.492 199.108 323.498 199.162 323.498C199.916 323.519 200.681 323.556 201.457 323.594C202.003 323.621 202.554 323.647 203.105 323.679C203.624 323.711 204.149 323.744 204.678 323.781C205.09 323.802 205.502 323.834 205.92 323.861C206.273 323.888 206.626 323.915 206.979 323.936C207.402 323.968 207.824 324 208.252 324.032C208.841 324.08 209.43 324.129 210.029 324.177C210.623 324.23 211.227 324.284 211.832 324.337C212.437 324.391 213.047 324.449 213.657 324.508C213.721 324.514 213.78 324.519 213.839 324.524C214.395 324.583 214.951 324.637 215.513 324.695C218.627 325.011 221.832 325.38 225.128 325.802C227.097 326.054 229.091 326.323 231.11 326.61C234.176 327.043 237.29 327.513 240.426 328.016C243.567 328.524 246.725 329.061 249.902 329.626C250.705 329.77 251.507 329.914 252.315 330.064C253.3 330.246 254.284 330.431 255.269 330.62C255.889 330.738 256.51 330.855 257.131 330.978C257.869 331.123 258.613 331.267 259.351 331.412C264.215 332.374 269.052 333.401 273.771 334.475C274.547 334.652 275.323 334.834 276.093 335.01C277.634 335.368 279.161 335.732 280.674 336.101C281.091 336.203 281.503 336.304 281.915 336.406C282.948 336.662 283.97 336.919 284.981 337.176V337.181C285.04 337.192 285.099 337.208 285.157 337.224C285.896 337.411 286.629 337.598 287.356 337.791C289.074 338.24 290.763 338.693 292.424 339.149C293.526 339.459 294.617 339.764 295.693 340.074C297.303 340.545 298.882 341.015 300.417 341.486C300.797 341.603 301.177 341.721 301.552 341.833C302.675 342.186 303.778 342.537 304.858 342.887C305.715 343.165 306.549 343.448 307.373 343.732C308.197 344.015 309.005 344.298 309.797 344.582C310.311 344.764 310.814 344.951 311.311 345.133C312.039 345.4 312.745 345.667 313.441 345.94C313.655 346.02 313.864 346.106 314.072 346.186C314.463 346.336 314.843 346.491 315.217 346.646C315.469 346.742 315.715 346.844 315.961 346.951C316.202 347.047 316.448 347.148 316.683 347.25C316.924 347.346 317.16 347.448 317.395 347.555C317.593 347.635 317.786 347.721 317.973 347.806C318.353 347.972 318.733 348.138 319.102 348.309C319.284 348.394 319.466 348.475 319.648 348.56L320.065 348.753C320.124 348.785 320.183 348.811 320.242 348.838C320.696 349.052 321.135 349.266 321.563 349.48C321.965 349.683 322.355 349.886 322.73 350.084C323.174 350.319 323.596 350.549 324.003 350.785C324.083 350.827 324.164 350.875 324.244 350.918C324.517 351.073 324.779 351.234 325.041 351.389C325.555 351.704 326.042 352.014 326.497 352.325C326.946 352.635 327.363 352.939 327.754 353.244C327.754 353.25 327.754 353.25 327.759 353.25C327.947 353.399 328.128 353.549 328.3 353.693C328.578 353.934 328.835 354.164 329.07 354.399C329.149 354.472 329.224 354.549 329.295 354.629C329.326 354.655 329.355 354.684 329.381 354.715C329.493 354.838 329.605 354.961 329.712 355.084C329.841 355.233 329.958 355.383 330.071 355.533C330.124 355.608 330.183 355.683 330.231 355.757C330.296 355.848 330.36 355.945 330.413 356.036C330.461 356.11 330.504 356.191 330.547 356.265C330.661 356.458 330.757 356.66 330.836 356.87C330.894 357.012 330.943 357.159 330.98 357.308C331.021 357.45 331.051 357.595 331.071 357.741Z" fill="black"/>
</g>
<defs>
<clipPath id="clip0_6_537">
<rect width="421" height="306" fill="white" transform="translate(40 111)"/>
</clipPath>
</defs>
</svg>
